<svg width="34" height="33" fill="none" xmlns="http://www.w3.org/2000/svg"><path d="M33.093 28.6.477 31.907C9.3 28.363 27.326 21.556 28.84 22.69c1.513 1.135 3.703 4.491 4.255 5.91Z" fill="#000" stroke="#000" stroke-width=".315" stroke-linejoin="round"/><path d="M17.957 5.495.24 17.771l25.947 7.812 4.185-12.555s-1.395-3.487-5.022-5.3c-3.627-1.814-7.393-2.233-7.393-2.233Z" fill="#FCCFDF" stroke="#000" stroke-width=".315" stroke-linejoin="round"/><path d="m.24 17.771 30.132-4.743v14.23L.24 32V17.77Z" fill="#96401C" stroke="#000" stroke-width=".315" stroke-linejoin="round"/><path d="m.24 21.956 30.132-4.743v2.232L.24 24.188v-2.232ZM.24 26.978l30.132-4.743v2.232L.24 29.21v-2.232Z" fill="#FFF5EA" stroke="#000" stroke-width=".315" stroke-linejoin="round"/><path d="M1.356 20.003c-.223-.446-.837-.372-1.116-.279v-1.953l30.132-4.743v2.65c-.418 0-.837.14-1.813-.697-.6-.513-1.674 0-1.953.977-.28.976-.28 2.65-1.395 2.232-1.116-.419-.558-1.116-1.256-2.232-.697-1.116-1.813-.28-2.232.418-.418.698-.279 1.814-1.116 1.814-.837 0-.697-1.256-1.395-1.535-.697-.279-1.255.14-1.534.419-.28.279-.977.976-2.372.558-1.395-.419-1.953-.698-2.79 0-.577.48-.837 2.232-1.953 2.232s-1.814-1.535-2.511-1.395c-.698.14-1.535 1.116-2.65 1.116-1.117 0-1.618-.494-2.093.14-.419.557-.419 1.673-1.116 1.673-.698 0-.558-.837-.837-1.395Z" fill="#FCCFDF" stroke="#000" stroke-width=".315" stroke-linejoin="round"/><path d="M23.536 9.68c-.697-1.535-2.511-1.116-2.93-1.116-2.743.93-6.417 3.041-3.627 3.487 3.488.558 6.945-1.52 6.557-2.371Z" fill="#000" stroke="#000" stroke-width=".315" stroke-linejoin="round"/><path d="M18.883 3.838c-.036.764-.219 1.902-.48 1.89-.26-.013-.705-1.332-.669-2.096.032-.675.592-1.076.592-1.076s.589.606.557 1.282Z" fill="#407229"/><path d="m18.326 2.556.113-.11a.158.158 0 0 0-.204-.018l.091.128Zm.4 1.275a7.864 7.864 0 0 1-.153 1.21c-.04.185-.086.336-.133.438a.366.366 0 0 1-.057.093c-.013.014-.003-.003.028-.002l-.015.315a.28.28 0 0 0 .215-.095.667.667 0 0 0 .115-.179 2.54 2.54 0 0 0 .155-.503c.085-.39.14-.874.16-1.263l-.316-.014Zm-.315 1.74c.03 0 .03.016.001-.015a.687.687 0 0 1-.091-.131 2.935 2.935 0 0 1-.214-.512c-.136-.418-.232-.918-.215-1.273l-.315-.015c-.02.409.088.95.23 1.386.072.219.155.42.24.57a.991.991 0 0 0 .137.193.323.323 0 0 0 .212.11l.015-.314Zm-.52-1.931c.015-.295.144-.534.276-.702a1.548 1.548 0 0 1 .248-.252c.002 0 .003-.002.003-.002a27.064 27.064 0 0 1-.183-.256h-.001l-.002.002a.484.484 0 0 0-.028.021 1.864 1.864 0 0 0-.286.293c-.157.2-.323.5-.341.88l.315.016Zm.436-1.084-.114.11h.001l.004.004.016.018c.015.017.036.04.061.072.052.064.12.155.187.265.136.225.257.513.244.806l.314.014c.018-.383-.139-.736-.289-.983a2.71 2.71 0 0 0-.309-.413l-.002-.002-.114.109Z" fill="#000"/><path d="M20.149 3.606c-.225.77-.892 1.91-1.18 1.826-.287-.084-.235-1.403-.01-2.174.2-.68.92-.937.92-.937s.469.604.27 1.285Z" fill="#407229"/><path d="m19.879 2.321.124-.097a.158.158 0 0 0-.177-.051l.053.148Zm.119 1.24c-.108.37-.325.834-.549 1.195-.113.18-.223.328-.317.423a.517.517 0 0 1-.112.091c-.029.015-.026.005-.006.01l-.088.303c.092.027.178 0 .242-.035a.818.818 0 0 0 .188-.146c.118-.12.242-.29.36-.48.237-.38.467-.87.584-1.272l-.302-.088Zm-.984 1.72c.02.006.017.016.001-.012a.515.515 0 0 1-.046-.137 2.503 2.503 0 0 1-.039-.528 5.28 5.28 0 0 1 .18-1.301l-.302-.089a5.59 5.59 0 0 0-.193 1.387c-.003.224.01.434.046.598.018.081.043.16.08.224a.321.321 0 0 0 .185.16l.088-.302Zm.097-1.978c.086-.296.287-.504.476-.641a1.681 1.681 0 0 1 .344-.192l-.052-.149a29.888 29.888 0 0 0-.053-.148h-.001l-.003.001-.008.003a1.094 1.094 0 0 0-.12.053 1.996 1.996 0 0 0-.293.177c-.221.161-.48.422-.593.807l.303.089Zm.768-.982-.125.097.003.004a.818.818 0 0 1 .057.086c.038.061.085.15.128.258.085.217.142.5.056.796l.302.088a1.547 1.547 0 0 0-.065-1 1.997 1.997 0 0 0-.224-.415l-.005-.007-.002-.002v-.001l-.125.096Z" fill="#000"/><path d="M22.653 6.208c-.655.395-1.967.702-2.118.452-.151-.251.942-1.036 1.597-1.431.58-.35 1.258-.053 1.258-.053s-.158.682-.737 1.032Z" fill="#407229"/><path d="m23.39 5.176.153.036a.158.158 0 0 0-.09-.18l-.063.144Zm-.818.897c-.309.186-.783.357-1.2.45-.21.045-.396.07-.534.07a.584.584 0 0 1-.152-.016c-.035-.01-.027-.017-.016.001l-.27.163c.049.08.131.12.2.139.07.02.152.028.237.028.17 0 .382-.03.602-.078.44-.097.949-.278 1.296-.487l-.163-.27Zm-1.902.505c.015.026.003.041.011.018a.444.444 0 0 1 .07-.112c.082-.102.215-.228.38-.364.33-.27.76-.562 1.083-.757l-.163-.27c-.332.201-.776.5-1.12.784-.17.14-.324.283-.426.41a.742.742 0 0 0-.12.202.29.29 0 0 0 .015.252l.27-.163Zm1.544-1.215c.248-.15.522-.163.744-.135a1.611 1.611 0 0 1 .364.091l.004.002.064-.145.063-.144h-.002l-.002-.001-.007-.004a1.21 1.21 0 0 0-.121-.042 1.926 1.926 0 0 0-.323-.07 1.463 1.463 0 0 0-.947.179l.163.27Zm1.176-.187a18.88 18.88 0 0 1-.154-.035l-.001.004a1.383 1.383 0 0 1-.028.092 1.847 1.847 0 0 1-.108.251c-.104.2-.271.43-.527.585l.163.27c.322-.195.524-.48.643-.709a2.16 2.16 0 0 0 .155-.385l.007-.026.002-.007v-.003h.001v-.001l-.153-.036Z" fill="#000"/><path d="M22.259 5.07c-.59.59-1.779 1.283-2.01 1.052-.231-.232.463-1.42 1.052-2.01.522-.52 1.33-.37 1.33-.37s.15.808-.372 1.329Z" fill="#407229"/><path d="m22.63 3.742.155-.029a.158.158 0 0 0-.126-.126l-.028.155Zm-.483 1.217a5.228 5.228 0 0 1-1.103.807 2.516 2.516 0 0 1-.508.22.543.543 0 0 1-.153.024c-.035-.002-.033-.01-.023 0l-.223.223a.341.341 0 0 0 .235.092.846.846 0 0 0 .247-.035c.17-.046.371-.136.576-.248.41-.223.868-.553 1.175-.86l-.223-.223ZM20.36 6.01c.01.01.002.012.001-.023a.539.539 0 0 1 .024-.153c.037-.136.114-.312.22-.507a5.23 5.23 0 0 1 .808-1.103l-.223-.223a5.538 5.538 0 0 0-.861 1.175 2.823 2.823 0 0 0-.248.575.848.848 0 0 0-.035.248.342.342 0 0 0 .091.234l.223-.223Zm1.053-1.786c.225-.226.517-.31.765-.335a1.794 1.794 0 0 1 .424.008l.029-.155.028-.155h-.004l-.009-.002a1.229 1.229 0 0 0-.139-.016 2.11 2.11 0 0 0-.362.006c-.287.03-.66.13-.955.426l.223.223Zm1.218-.482-.155.028v.006l.004.022.009.09c.005.076.007.184-.006.307-.025.247-.11.539-.336.764l.223.223c.296-.295.397-.668.427-.955a2.108 2.108 0 0 0-.01-.51l-.001-.002v-.001l-.155.028Z" fill="#000"/><path d="M21.495 3.879c-.433.712-1.424 1.667-1.704 1.497-.28-.17.113-1.49.546-2.201.384-.63 1.204-.676 1.204-.676s.337.75-.046 1.38Z" fill="#407229"/><path d="m21.54 2.5.145-.065a.158.158 0 0 0-.153-.093l.009.157Zm-.18 1.297a5.225 5.225 0 0 1-.88 1.045c-.165.149-.318.266-.442.334a.543.543 0 0 1-.143.06c-.034.006-.034-.002-.022.005l-.164.27a.34.34 0 0 0 .25.033.847.847 0 0 0 .232-.092 2.82 2.82 0 0 0 .5-.377c.346-.315.713-.743.938-1.114l-.269-.164ZM19.873 5.24c.012.008.005.011-.005-.022a.543.543 0 0 1-.013-.154c.004-.142.037-.331.094-.546.114-.428.316-.921.523-1.262l-.27-.164a5.54 5.54 0 0 0-.557 1.345c-.06.226-.1.442-.105.618a.843.843 0 0 0 .025.248c.02.074.062.156.144.206l.164-.269Zm.599-1.984c.166-.273.43-.424.664-.508a1.79 1.79 0 0 1 .414-.092l-.01-.158-.008-.157h-.004a.676.676 0 0 0-.04.004 2.11 2.11 0 0 0-.458.106c-.272.097-.61.284-.827.64l.269.165Zm1.069-.758-.144.065a.1.1 0 0 1 .002.005l.009.021.03.084c.023.074.05.178.067.3.034.246.021.55-.145.823l.27.164c.217-.358.227-.743.188-1.03a2.113 2.113 0 0 0-.117-.455l-.011-.03a1.226 1.226 0 0 0-.004-.007v-.003h-.001v-.001l-.144.064Z" fill="#000"/><path d="M22.207 6.948c.713 1.683-1.08 3.943-3.087 4.794-2.006.85-3.268.564-3.981-1.12-.714-1.683-.583-5.473 1.53-6.253 2.006-.85 4.824.896 5.538 2.579Z" fill="#FC6732" stroke="#000" stroke-width=".315" stroke-linejoin="bevel"/><circle cx="17.336" cy="5.578" r=".179" transform="rotate(21.046 17.336 5.578)" fill="#000"/><circle cx="16.153" cy="6.659" r=".179" transform="rotate(21.046 16.153 6.66)" fill="#000"/><circle cx="16.116" cy="9.161" r=".179" transform="rotate(21.046 16.116 9.161)" fill="#000"/><circle cx="18.889" cy="5.535" r=".179" transform="rotate(21.046 18.889 5.535)" fill="#000"/><circle cx="17.628" cy="7.483" r=".179" transform="rotate(21.046 17.628 7.483)" fill="#000"/><circle cx="17.864" cy="8.803" r=".179" transform="rotate(21.046 17.864 8.803)" fill="#000"/><circle cx="20.322" cy="6.471" r=".179" transform="rotate(21.046 20.322 6.47)" fill="#000"/><circle cx="19.473" cy="7.681" r=".179" transform="rotate(21.046 19.473 7.68)" fill="#000"/><circle cx="18.777" cy="10.486" r=".179" transform="rotate(21.046 18.777 10.486)" fill="#000"/><circle cx="21.008" cy="8.015" r=".179" transform="rotate(21.046 21.008 8.015)" fill="#000"/><circle cx="20.381" cy="9.311" r=".179" transform="rotate(21.046 20.381 9.31)" fill="#000"/><circle cx="17.239" cy="10.642" r=".179" transform="rotate(21.046 17.239 10.642)" fill="#000"/></svg>