<svg width="34" height="33" fill="none" xmlns="http://www.w3.org/2000/svg"><path d="M32.174 28.355c0 2.566-6.516 4.645-14.555 4.645-8.038 0-14.967-3.938-14.967-6.503S9.58 23.71 17.619 23.71c8.039 0 14.555 2.08 14.555 4.645Z" fill="#000"/><path fill-rule="evenodd" clip-rule="evenodd" d="M2.445 25.568c0 3.643 6.448 5.088 14.401 5.088 7.954 0 14.401-1.445 14.401-5.088V23.77c0 1.436-6.447 2.6-14.4 2.6-7.954 0-14.402-1.164-14.402-2.6v1.798Z" fill="#F6A84C" stroke="#000" stroke-width=".314" stroke-linejoin="round"/><path fill-rule="evenodd" clip-rule="evenodd" d="M31.247 23.746c-.002 1.408-6.447 2.72-14.4 2.72-7.954 0-14.402-1.218-14.402-2.72 0-1.503 6.448-2.72 14.401-2.72 7.954 0 14.401 1.217 14.401 2.72Z" fill="#FFDA7A" stroke="#000" stroke-width=".314"/><path d="m4.096 22.988 13.626-.93c.31.517.227 1.735-2.58 2.478-2.808.743-7.64 2.58-9.704 3.406l-1.342-4.954Z" fill="#FFD748" stroke="#000" stroke-width=".314"/><path fill-rule="evenodd" clip-rule="evenodd" d="M30.999 22.987c-1.255 1.213-7.113 2.24-14.153 2.24-7.087 0-12.978-.966-14.178-2.24-.473-.503-.533-1.2-.533-1.858 0-.929.31-1.548.31-1.548 2.642-.59 9.993.206 14.401.206 4.408 0 11.76-.796 14.4-.206 0 0 .309.773.309 1.548 0 .774-.016 1.336-.556 1.858Z" fill="#722E11" stroke="#000" stroke-width=".314"/><path fill-rule="evenodd" clip-rule="evenodd" d="M31.247 19.617c-.002 1.409-6.447 2.72-14.4 2.72-7.954 0-14.402-1.218-14.402-2.72 0-1.503 6.448-2.72 14.401-2.72 7.954 0 14.401 1.217 14.401 2.72Z" fill="#923C15" stroke="#000" stroke-width=".314"/><path d="m29.965 19.684-14.638-.93c-.31.517-2.808 1.838 0 2.581 2.807.744 10.219 2.478 12.283 3.304l2.355-4.955Z" fill="#FFD748" stroke="#000" stroke-width=".314"/><path fill-rule="evenodd" clip-rule="evenodd" d="M18.402 20.164c-.704.611-3.89 1.02-7.69.86-3.826-.162-6.985-.806-7.605-1.505-.244-.276-.26-.646-.246-.993.02-.49.202-.81.202-.81 1.439-.25 5.39.337 7.77.437 2.38.1 6.366-.152 7.779.22 0 0 .149.414.132.823-.017.409-.039.705-.342.968Z" fill="#F54D11" stroke="#000" stroke-width=".314"/><path fill-rule="evenodd" clip-rule="evenodd" d="M18.572 18.359c-.035.801-3.528 1.4-7.8 1.22-4.272-.18-7.706-1.018-7.67-1.873.036-.854 3.528-1.4 7.8-1.22 4.272.18 7.706 1.018 7.67 1.873Z" fill="#FC6732" stroke="#000" stroke-width=".314"/><path fill-rule="evenodd" clip-rule="evenodd" d="M30.084 19.843c-.65.67-3.788 1.35-7.589 1.515-3.826.166-7.028-.206-7.705-.85-.267-.254-.315-.62-.33-.967-.022-.49.131-.824.131-.824 1.413-.373 5.4-.126 7.78-.23 2.379-.103 6.33-.695 7.769-.447 0 0 .184.4.202.81.017.408.021.705-.258.993Z" fill="#F54D11" stroke="#000" stroke-width=".314"/><path fill-rule="evenodd" clip-rule="evenodd" d="M30.1 18.031c.033.801-3.397 1.698-7.668 1.884-4.272.185-7.765-.357-7.802-1.21-.037-.855 3.396-1.698 7.667-1.884 4.272-.186 7.765.356 7.802 1.21Z" fill="#FC6732" stroke="#000" stroke-width=".314"/><path d="M28.542 12.768a.733.733 0 0 0-.391.693c.05.242.412.516.994.457.819-.07 1.643.063 2.399.386.662.281 1.19.81 1.47 1.475a3.077 3.077 0 0 1-.062 2.298 2.761 2.761 0 0 1-1.47 1.631 2.496 2.496 0 0 1-2-.127 5.508 5.508 0 0 1-1.925-1.598c-.365-.499-.747-.59-.994-.458a.562.562 0 0 0-.188.782c.197.693-.059 1.72-1.202 2.25-1.144.532-2.289.305-2.702-.703-.413-1.008-.306-1.409-1.185-1.485-.88-.076-.588.98-1.47 1.516-.347.206-1.488.33-1.932-.469-.258-.483-.192-.948-.488-1.295a.55.55 0 0 0-.4-.203.534.534 0 0 0-.396.203c-.297.347-.228.813-.489 1.295-.44.8-1.584.675-1.931.469-.882-.537-.69-1.37-1.309-1.44-.62-.07-.929.043-1.445.971-.516.928-1.462 1.67-2.606 1.142-1.144-.529-1.396-1.558-1.2-2.251a.568.568 0 0 0-.188-.782c-.25-.144-.632-.041-.996.458a5.502 5.502 0 0 1-1.923 1.598 2.51 2.51 0 0 1-2.002.127 2.766 2.766 0 0 1-1.47-1.631 3.089 3.089 0 0 1-.053-2.289 2.777 2.777 0 0 1 1.47-1.475 5.024 5.024 0 0 1 2.399-.386c.588.059.947-.216.994-.457a.734.734 0 0 0-.418-.702" fill="#8BA912"/><path d="M28.542 12.768a.733.733 0 0 0-.391.693c.05.242.412.516.994.457.819-.07 1.643.063 2.399.386.662.281 1.19.81 1.47 1.475a3.077 3.077 0 0 1-.062 2.298 2.761 2.761 0 0 1-1.47 1.631 2.496 2.496 0 0 1-2-.127 5.508 5.508 0 0 1-1.925-1.598c-.365-.499-.747-.59-.994-.458a.562.562 0 0 0-.188.782c.197.693-.059 1.72-1.202 2.25-1.144.532-2.289.305-2.702-.703-.413-1.008-.306-1.409-1.185-1.485-.88-.076-.588.98-1.47 1.516-.347.206-1.488.33-1.932-.469-.258-.483-.192-.948-.488-1.295a.55.55 0 0 0-.4-.203.534.534 0 0 0-.396.203c-.297.347-.228.813-.489 1.295-.44.8-1.584.675-1.931.469-.882-.537-.69-1.37-1.309-1.44-.62-.07-.929.043-1.445.971-.516.928-1.462 1.67-2.606 1.142-1.144-.529-1.396-1.558-1.2-2.251a.568.568 0 0 0-.188-.782c-.25-.144-.632-.041-.996.458a5.502 5.502 0 0 1-1.923 1.598 2.51 2.51 0 0 1-2.002.127 2.766 2.766 0 0 1-1.47-1.631 3.089 3.089 0 0 1-.053-2.289 2.777 2.777 0 0 1 1.47-1.475 5.024 5.024 0 0 1 2.399-.386c.588.059.947-.216.994-.457a.734.734 0 0 0-.418-.702" stroke="#000" stroke-width=".314"/><path fill-rule="evenodd" clip-rule="evenodd" d="M31.176 14.293c-.813 1.267-6.923 2.252-14.34 2.252-7.418 0-13.528-.985-14.341-2.252-.084-.13-.037-.294-.035-.441C2.495 9.877 6.74 1 16.836 1 26.93 1 31.175 9.473 31.21 13.852c.002.154.049.31-.035.441Z" fill="#F7A84C" stroke="#000" stroke-width=".314"/><path fill-rule="evenodd" clip-rule="evenodd" d="M22.615 7.672s1.622.764 1.93 1.123c.306.358.305.862-.004 1.125-.309.264-.808.187-1.115-.171-.306-.359-.81-2.077-.81-2.077ZM21.709 12.587s-1.09 1.423-1.506 1.647c-.415.224-.908.116-1.1-.242-.192-.357-.011-.829.404-1.052.415-.224 2.202-.353 2.202-.353ZM16.532 9.794s-1.005-1.485-1.086-1.95c-.08-.465.178-.897.578-.966.4-.07.79.251.87.716.082.465-.362 2.2-.362 2.2ZM8.706 6.009s1.268 1.268 1.435 1.71c.168.44-.005.914-.384 1.057-.38.144-.823-.097-.99-.538-.168-.441-.061-2.229-.061-2.229ZM13.653 12.341s.396 1.75.302 2.212c-.093.462-.491.771-.89.69-.397-.081-.643-.522-.55-.984.094-.462 1.138-1.918 1.138-1.918ZM26.989 12.867s.014-1.793.21-2.221c.198-.43.656-.639 1.025-.469.368.17.508.655.31 1.084-.196.429-1.545 1.606-1.545 1.606ZM8.034 13.034s-1.646-.71-1.965-1.058c-.319-.348-.334-.851-.034-1.125.3-.274.8-.214 1.12.134.318.348.88 2.049.88 2.049ZM13.92 3.589s-1.568.868-2.038.908c-.47.04-.879-.257-.912-.661-.033-.405.321-.765.791-.804.47-.04 2.16.557 2.16.557ZM21.073 3.017s-.177 1.784-.412 2.193c-.235.41-.71.576-1.063.374-.351-.203-.446-.699-.21-1.108.234-.41 1.685-1.46 1.685-1.46Z" fill="#FFEDAD" stroke="#000" stroke-width=".314" stroke-linejoin="round"/></svg>