<svg width="40" height="34" fill="none" xmlns="http://www.w3.org/2000/svg"><path d="M11.723 6.58a7.352 7.352 0 0 1 .332-2.492c.557-2.032 2.44-2.967 3.812-2.181 1.11.642.712 1.82 1.592 2.085a.924.924 0 0 0 .63 0c.587-.176.566-1.036.968-1.651.88-1.37 2.932-1.78 4.157-.81 1.226.971 1.628 2.566.52 3.965a.847.847 0 0 0 0 .947c.199.21.759.249 1.357-.194.845-.599 1.814-1 2.835-1.173a3.422 3.422 0 0 1 2.49.508 3.351 3.351 0 0 1 1.322 2.328c.085.554.043 1.12-.123 1.656v.053c-2.066 8.153-12.104 7.204-17.361 6.201-3.032-.571-.586-4.764-1.627-6.45a5.113 5.113 0 0 1-.904-2.791Z" fill="#375D07" stroke="#000" stroke-width=".331" stroke-linejoin="round"/><path d="M19.036 27.538c.832-.422.935-1.357.703-2.249-.246-.956-.454-1.322-.369-2.395a4.106 4.106 0 0 1 .393-1.495c.242-.445.517-.87.824-1.273.338-.446.702-.872 1.09-1.276 1.311-1.448 1-3.565-.375-4.21-1.123-.525-1.826.446-2.521-.103a.88.88 0 0 1-.34-.5c-.18-.552.504-1.018.768-1.675.586-1.466-.209-3.287-1.66-3.73-1.451-.442-2.932.132-3.416 1.78a.812.812 0 0 1-.744.528c-.276-.041-.62-.46-.587-1.173a6.63 6.63 0 0 0-.636-2.891 3.293 3.293 0 0 0-1.786-1.677 3.225 3.225 0 0 0-2.568.243 3.225 3.225 0 0 0-1.71 1.932c-.211.819-.1 1.687.311 2.425a6.63 6.63 0 0 0 1.959 2.217c.586.407.727.93.586 1.173a.807.807 0 0 1-.865.293c-1.618-.575-2.95.273-3.448 1.706-.498 1.434.507 3.146 2.032 3.54.686.172 1.466-.103 1.806.369a.88.88 0 0 1 .205.569c.033.88-1.172.88-1.404 2.096-.293 1.492 1.237 2.988 3.173 2.794.553-.077 1.111-.12 1.67-.129.507-.01 1.014.02 1.517.085a4.039 4.039 0 0 1 1.442.566c.965.587 1.044.997 1.716 1.71.407.425 1.401 1.172 2.234.75Z" fill="#8BA912" stroke="#000" stroke-width=".331" stroke-linejoin="round"/><circle cx="24.216" cy="13.897" fill="#DA1536" stroke="#000" stroke-width=".331" r="4.96"/><circle cx="24.216" cy="13.897" fill="#FFF4F4" stroke="#000" stroke-width=".331" r="3.968"/><path fill-rule="evenodd" clip-rule="evenodd" d="M24.215 15.385s.497.822.497 1.059-.221.43-.495.429c-.274 0-.496-.193-.497-.43 0-.237.495-1.058.495-1.058ZM22.728 13.895s-.822.497-1.059.497-.429-.221-.429-.495.193-.496.43-.497c.237 0 1.058.495 1.058.495ZM23.14 12.82s-.933-.23-1.1-.398c-.168-.168-.147-.46.047-.654.193-.194.486-.215.654-.047.168.167.399 1.098.399 1.098ZM23.138 14.923s-.23.932-.397 1.1c-.168.168-.46.147-.654-.047s-.215-.487-.047-.655c.167-.168 1.098-.398 1.098-.398ZM24.218 12.409s-.497-.822-.497-1.059.221-.43.495-.43c.274.001.496.193.496.43 0 .238-.494 1.059-.494 1.059ZM25.704 13.898s.822-.497 1.059-.498c.237 0 .43.222.429.496 0 .274-.193.496-.43.497-.237 0-1.058-.495-1.058-.495ZM25.243 14.925s.932.23 1.1.397c.168.168.147.46-.047.654s-.487.215-.655.047c-.168-.167-.398-1.098-.398-1.098ZM25.245 12.82s.23-.932.397-1.1c.168-.168.46-.147.654.047s.215.487.047.655c-.167.168-1.098.398-1.098.398Z" fill="#FFD748" stroke="#000" stroke-width=".331" stroke-linejoin="round"/><path d="M30.786 25.197c.1-.735.058-1.48-.125-2.203-.387-1.824-2.186-2.78-3.606-2.187-1.165.482-.855 1.545-1.752 1.713-.209.045-.43.026-.624-.055-.559-.204-.478-.967-.827-1.518-.771-1.264-2.757-1.77-4.059-1.008-1.302.763-1.836 2.11-.852 3.43a.677.677 0 0 1-.072.825c-.215.171-.777.166-1.333-.275a7.236 7.236 0 0 0-2.726-1.24 3.797 3.797 0 0 0-2.497.276c-.39.215-.726.5-.985.834-.26.335-.438.714-.523 1.113a2.87 2.87 0 0 0 0 1.462.128.128 0 0 0 0 .047c.53 2.358 6.481 4.423 11.788 3.936 3.063-.275 5.898-1.377 7.081-2.754a4.222 4.222 0 0 0 1.112-2.396Z" fill="#375D07" stroke="#000" stroke-width=".331" stroke-linejoin="round"/><path d="M20.848 27.864c.623.499 1.388.248 2.001-.25s.864-.823 1.73-1.14a3.509 3.509 0 0 1 1.319-.215c.433.03.862.092 1.285.189.466.104.926.235 1.376.395 1.586.495 3.125-.498 3.138-1.796.01-1.06-.998-1.262-.818-1.997a.749.749 0 0 1 .27-.44c.365-.338.97.027 1.575-.001 1.342-.049 2.483-1.332 2.309-2.617-.175-1.284-1.161-2.226-2.63-2.027a.688.688 0 0 1-.672-.391c-.066-.23.13-.643.7-.882a5.622 5.622 0 0 0 2.018-1.505 2.811 2.811 0 0 0 .68-1.98 3 3 0 0 0-3.21-2.559c-.709.127-1.341.521-1.768 1.1a5.624 5.624 0 0 0-1.027 2.311c-.123.613-.464.895-.703.882a.694.694 0 0 1-.523-.568c-.13-1.463-1.262-2.198-2.555-2.076-1.293.122-2.298 1.503-2.043 2.83.11.595.6 1.102.354 1.533a.747.747 0 0 1-.37.363c-.673.339-1.096-.598-2.128-.35-1.263.307-1.884 2.027-1.045 3.461.26.405.494.825.703 1.257.185.389.338.792.459 1.205.11.43.137.878.078 1.32-.114.958-.4 1.164-.71 1.943-.194.468-.422 1.509.207 2.005Z" fill="#8BA912" stroke="#000" stroke-width=".331" stroke-linejoin="round"/><path d="M12.633 25.514a5.825 5.825 0 0 1-.781-8.2c2.048-2.48 2.188 1.125 4.668 3.174s6.363 1.765 4.314 4.245a5.825 5.825 0 0 1-8.201.781Z" fill="#F25138" stroke="#000" stroke-width=".331"/><path d="M13.375 24.688c-1.854-1.53-2.285-3.985-1.073-5.743 1.212-1.757 1.695 1.1 3.605 2.678 1.91 1.577 4.849 1.607 3.31 3.034-1.539 1.427-3.989 1.562-5.842.031Z" fill="#CB3413" stroke="#000" stroke-width=".331"/><path d="M14.802 23.587c-.253.451-.556.38-.733.235-.178-.147-.304-.431.091-.764.395-.334.626-.323.733-.235.107.089.161.314-.091.764ZM15.987 24.146c-.088.51-.397.544-.613.465-.216-.079-.43-.305-.169-.75.262-.447.483-.513.613-.466.13.048.257.242.169.751ZM13.392 21.982c-.484.182-.46.493-.341.69.118.197.38.364.769.023.388-.34.412-.57.34-.69-.07-.118-.285-.206-.768-.023ZM17.269 24.371c.047.464-.214.569-.42.552-.207-.016-.448-.16-.328-.611.119-.45.295-.562.42-.553.125.01.28.148.328.612ZM12.928 20.765c-.464.042-.518.317-.463.517.055.2.243.41.663.207.42-.202.496-.396.463-.517-.034-.12-.198-.248-.663-.207ZM18.435 24.344c.126.407-.089.548-.277.57-.189.024-.43-.063-.405-.488.026-.426.163-.558.277-.571.114-.014.279.081.405.489ZM12.735 19.616c-.424-.047-.522.19-.509.38.013.189.144.41.557.305.413-.106.517-.266.508-.38-.008-.114-.132-.258-.556-.305Z" fill="#FFDEAC" stroke="#000" stroke-width=".331"/><path d="M6.111 7.312C2.882 9 .903 11.273.903 13.776c0 5.201 8.55 9.417 19.097 9.417s19.097-4.216 19.097-9.417c0-3.2-3.237-6.028-8.184-7.73M24.216 4.65c.685.078 2.249.265 3.386.488" stroke="#000" stroke-width=".331"/><path d="M33.123 22.496c.853.944 1.329 1.995 1.329 3.104 0 4.087-6.47 7.4-14.452 7.4S5.548 29.687 5.548 25.6c0-1.242.597-2.412 1.651-3.439" stroke="#000" stroke-width=".331"/><path d="M.903 13.903c.516 3.613 3.097 9.29 4.903 13.162M39.097 13.903c-.516 3.613-3.097 9.29-4.903 13.162" stroke="#000" stroke-width=".331"/><path d="M31.905 31.753c-2.728.819-5.952 1.24-11.16 1.24 7.936-.423 10.278-2.24 12.15-4.023.558-.532 1.455-1.871 1.782-2.673 4.42 1.618 2.188 3.968-2.772 5.456Z" fill="#000"/><path d="m20.744 32.993-.008-.165a.165.165 0 0 0 .008.33v-.165Zm11.161-1.24-.047-.158.047.158Zm2.772-5.456.057-.155-.15-.055-.06.148.153.062Zm-1.782 2.673.113.12-.114-.12Zm-12.15 4.189c5.216 0 8.458-.423 11.207-1.247l-.095-.317c-2.706.812-5.913 1.233-11.113 1.233v.33Zm11.207-1.247c1.248-.375 2.329-.804 3.18-1.266.846-.46 1.48-.96 1.816-1.483.169-.264.265-.539.268-.82a1.374 1.374 0 0 0-.275-.816c-.364-.513-1.093-.977-2.207-1.385l-.114.31c1.096.401 1.746.837 2.051 1.267.15.21.216.418.214.622-.002.205-.072.42-.215.644-.29.453-.868.92-1.697 1.37-.824.448-1.883.87-3.115 1.24l.095.317Zm2.572-5.677c-.158.386-.457.91-.789 1.408-.333.498-.688.954-.954 1.207l.227.24c.293-.279.665-.758 1.002-1.263.338-.506.65-1.052.82-1.468l-.306-.125ZM32.78 28.85c-.929.883-1.964 1.768-3.749 2.487-1.789.721-4.339 1.28-8.296 1.49l.017.33c3.979-.212 6.568-.774 8.403-1.513 1.838-.741 2.91-1.657 3.852-2.555l-.227-.24Z" fill="#000"/></svg>