<svg width="48" height="32" fill="none" xmlns="http://www.w3.org/2000/svg"><path d="M42.319 29.537c0 1.296-6.196 2.463-13.84 2.463-7.642 0-14.776-.816-14.776-2.111 0-1.296 7.134-2.228 14.777-2.228 7.643 0 13.839.58 13.839 1.876Z" fill="#000"/><path d="M2.767 21.92c3.181-1.068 15.648-.822 21.072-.845 5.425.023 18.212-.223 21.393.845-2.112.352-1.924 2.907-4.739 5.488-2.804 2.57-7.085 3.983-16.654 3.987-9.568-.004-13.85-1.418-16.653-3.987-2.815-2.58-2.307-5.136-4.419-5.488Z" fill="#FEDACD" stroke="#000" stroke-width=".333"/><path d="M47.048 21.972c0 1.133-3.516 5.252-23.142 5.252-19.626 0-22.96-4.302-22.96-5.252 0-.694-.002-.938 0-1.407 4.856-2.33 7.458-4.574 22.96-4.574 17.004 0 19.648 1.888 23.142 4.574v1.407Z" fill="#FEDACD" stroke="#000" stroke-width=".333"/><path d="M47.055 20.553c0 3.322-10.322 5.832-23.055 5.832S.945 23.875.945 20.553 11.267 14.539 24 14.539s23.055 2.692 23.055 6.014Z" fill="#FFF5F1" stroke="#000" stroke-width=".333"/><ellipse cx="24.022" cy="20.213" rx="21.11" ry="4.222" fill="#FEDACD" stroke="#000" stroke-width=".333"/><path d="M6.548 22.558c3.843 1.043 10.146 1.946 17.122 1.946 7.82 0 14.648-.85 18.296-2.114.82-.663 2.087-2.834.586-6.212-1.501-3.377-6.333-4.613-8.561-4.808-.47-1.408-1.642-2.465-2.58-2.934-1.952-.975-3.519-1.174-7.389-1.174-2.231 0-4.084-.932-7.037 0-2.228.703-4.222.94-4.925 2.7-1.095 0-4.011.868-6.92 4.34-2.908 3.471-.312 6.875 1.408 8.256Z" fill="#FFB329" stroke="#000" stroke-width=".333" stroke-linecap="round" stroke-linejoin="round"/><path d="M11.708 23.614c-.352-.86-.774-2.917.352-4.512 1.126-1.595 2.697-1.637 3.284-1.52" stroke="#000" stroke-width=".333" stroke-linecap="round" stroke-linejoin="round"/><path d="M13.232 23.731c-.703-1.29-1.055-3.215.47-5.092 1.219-1.502 4.104-1.642 5.16-.822" stroke="#000" stroke-width=".333" stroke-linecap="round" stroke-linejoin="round"/><path d="M14.64 23.966c-.703-.938-1.022-2.623-.118-4.036 1.876-2.933 7.154-3.166 8.092 1.524" stroke="#000" stroke-width=".333" stroke-linecap="round" stroke-linejoin="round"/><path d="M16.047 24.083c-.626-.782-1.384-2.655.117-4.156 1.502-1.501 4.809-.818 5.16 1.878" stroke="#000" stroke-width=".333" stroke-linecap="round" stroke-linejoin="round"/><path d="M17.924 19.225c.117 1.877 2.955 3.919 5.395 1.76 2.439-2.157 3.87-3.167 6.45-1.876" stroke="#000" stroke-width=".333" stroke-linecap="round" stroke-linejoin="round"/><path d="M16.869 19.457c0 2.111 1.435 3.903 4.457 3.753 2.347-.117 3.05-1.642 4.808-2.932.698-.512 3.048-1.64 5.746-.936" stroke="#000" stroke-width=".333" stroke-linecap="round" stroke-linejoin="round"/><path d="M16.047 20.046c-.234 1.759.563 3.896 2.815 4.271M23.553 24.502c.547-.273 1.71-1.103 2.345-1.993 1.173-1.642 3.401-2.932 6.685-2.346" stroke="#000" stroke-width=".333" stroke-linecap="round" stroke-linejoin="round"/><path d="M26.133 24.434c.938-.703 1.876-1.808 2.345-2.277.882-.881 2.815-1.642 4.574-1.173M3.85 18.052c1.407 3.167 3.378 4.105 7.506 4.574M4.906 14.534c-.586 2.345.705 4.104 1.76 5.043.932.828 2.696 1.524 4.573 1.759" stroke="#000" stroke-width=".333" stroke-linecap="round" stroke-linejoin="round"/><path d="M7.016 13.243c-.703.704-1.296 2.453-.351 3.988.938 1.524 2.346 2.228 4.926 2.697" stroke="#000" stroke-width=".333" stroke-linecap="round" stroke-linejoin="round"/><path d="M12.294 18.756c-.547.04-2.345-.352-3.283-1.172-1.11-.971-1.54-2.238-.9-3.167" stroke="#000" stroke-width=".333" stroke-linecap="round" stroke-linejoin="round"/><path d="M9.127 17.584c.86-.391 3.19-.94 5.16-.001M8.072 16.292c1.055-.43 3.166-1.055 5.043-.703 1.546.29 2.658 1.368 3.049 1.76M22.145 20.046c.625-.9 2.625-2.647 4.808-2.815 3.402-.263 5.63 2.58 6.099 3.753" stroke="#000" stroke-width=".333" stroke-linecap="round" stroke-linejoin="round"/><path d="M28.244 22.509c1.173.508 4.246 1.313 7.154.469 3.636-1.056 4.222-5.512 1.76-7.154" stroke="#000" stroke-width=".333" stroke-linecap="round" stroke-linejoin="round"/><path d="M29.3 21.57c1.876.704 6.098.938 7.388-.704 1.302-1.657.82-3.753-.587-4.69" stroke="#000" stroke-width=".333" stroke-linecap="round" stroke-linejoin="round"/><path d="M33.052 20.984c.508.117 1.525.117 2.111-.235.786-.471 2.463-2.11-.352-4.574" stroke="#000" stroke-width=".333" stroke-linecap="round" stroke-linejoin="round"/><path d="M30.002 16.175c.743.118 2.839 1.243 4.34 4.809M31.762 15.59c1.056.468 3.307 2.064 3.87 4.69M27.422 23.33c.157.235.704.706 1.642.988M37.86 15.12c1.408 1.056 2.564 2.547 2.346 5.16-.117 1.408-.82 2.278-1.759 2.982" stroke="#000" stroke-width=".333" stroke-linecap="round"/><path d="M38.095 13.713c.43.351 1.337 1.36 1.056 2.58M39.268 13.01c.547.742 1.407 2.627.469 4.222M40.793 13.948c.43.86 1.008 2.861-.587 4.456M42.318 15.707c.273.782.351 2.603-1.994 4.104M40.09 20.984c.742 0 2.345-.704 3.166-2.58M39.502 22.274c.821-.156 2.58-.61 3.519-1.642" stroke="#000" stroke-width=".333" stroke-linecap="round"/><path d="M15.298 17.941c-.894.65-1.727.271-2.236 0l1.728-3.353c1.321 0 4.366.128 3.353.305-2.337.406-1.727 2.235-2.845 3.048ZM25.765 18.855c-.57.65-1.39.542-1.728.407l1.321-4.675c.712-.372 1.992-.894 1.423 0-.711 1.118-.305 3.455-1.016 4.268ZM35.139 13.045c.894 0 1.937-.574 2.072-.777l-3.622-1.44-2.845.711-.305 3.455c.237 1.253.874 3.679 1.524 3.354.813-.407 1.636-.915 1.423-3.049-.102-1.016-1.42-2.12-1.118-2.54.54-.75 1.753.286 2.87.286Z" fill="#000" stroke="#000" stroke-width=".333"/><path d="M13.32 13.314c-.341.555-.709.873-1.102 1.718-.393.846-.34 2.115.289 2.828.629.714 2.385.767 3.066-.713.682-1.48 1.023-1.771 2.123-1.56 1.101.212.996 1.375 1.966 1.56.97.185 1.678-.978 2.962-.661 1.284.317.282 2.87 1.494 3.066 1.468.238 1.415-1.242 1.677-3.383s1.835-1.639 2.857-1.031c1.022.608.446 2.088 1.153 3.172.708 1.084 2.674.713 3.198-1.639s-1.91-3.016-1.24-4.13c.703-1.173 2.246.494 4.152.245 3.066-.4 1.296-2.59-3.097-4.585-1.976-.897-4.484-5-7.264-5-1.896 0-3.14.81-4.214 1.417-1.075.608-2.464.344-3.906.793-1.441.45-2.123 2.035-4.115 2.432-1.992.396-4.036 1.552-3.957 2.82.079 1.27 1.807.032 3.145.325 1.194.262 1.667.933.812 2.326Z" fill="#FF5110" stroke="#000" stroke-width=".333" stroke-linecap="round"/><path d="M6.782 12.54c.39.977 1.853 2.862 3.635 3.05M8.072 11.602c.273 1.055 1.712 2.744 4.34 2.932M10.066 11.25c.274.626 1.29 1.947 3.166 2.229M17.229 15.604c.547.352 1.68 1.181 1.867 2.213M20.973 18.522c.273-.313 1.079-1.056 2.11-1.525M19.8 17.935c.157-.234.516-.75.704-.938M25.898 15.94c.626-.077 2.276-.14 3.401.236M12.06 11.015c.078.274.516.915 1.642 1.29M33.052 15.589c1.056.469 3.094.996 4.34 0 1.172-.938.469-2.893.351-3.284" stroke="#000" stroke-width=".333" stroke-linecap="round"/><path d="M32.115 13.83c1.016.47 3.12 1.121 3.87.821 1.173-.469.708-1.347.449-1.865" stroke="#000" stroke-width=".333" stroke-linecap="round"/><path d="M18.635 3.42c-1.656 1.888-1.119 5.066-1.119 5.066s3.22.116 4.877-1.773c1.655-1.888 1.118-5.066 1.118-5.066s-3.22-.116-4.876 1.773Z" fill="#66A725" stroke="#000" stroke-width=".333" stroke-linejoin="round"/><path d="M22.443 2.84 17.2 9.023M20.978 3.07l.078 1.273M19.183 4.523l.051 1.993M21.894 5.744l-1.981.065" stroke="#000" stroke-width=".333" stroke-linecap="round" stroke-linejoin="round"/><path d="M24.87 14.87c1.768 1.784 4.976 1.471 4.976 1.471s.34-3.205-1.427-4.988c-1.769-1.784-4.977-1.471-4.977-1.471s-.34 3.205 1.428 4.989Z" fill="#66A725" stroke="#000" stroke-width=".333" stroke-linejoin="round"/><path d="m24.557 11.03 5.803 5.665M24.684 12.509l1.276.01M26.009 14.4l1.99.089M27.416 11.782l-.074 1.981" stroke="#000" stroke-width=".333" stroke-linecap="round" stroke-linejoin="round"/></svg>