<svg width="40" height="34" fill="none" xmlns="http://www.w3.org/2000/svg"><path d="M15.374 31.34c-.892-.414.573-3.78-.325-4.47l17.508-9.137c2.415 1.57 8.266 3.062 6.966 5.699-.454.92-3.761 2.24-7.57 3.674-2.88 1.083-7.607 4.981-11.496 5.54-2.271.327-3.969-.788-5.083-1.306Z" fill="#000" stroke="#000" stroke-width=".297" stroke-linejoin="round"/><path d="M25.763 7.369c0-.966-.121-2.294-.181-2.837l-1.69.845-.362 3.018c.744.06 2.233-.06 2.233-1.026Z" fill="#E99533" stroke="#000" stroke-width=".297" stroke-linejoin="round"/><path d="M.958 15.455c0-.676.02-3.46.06-5.19L6.39 12.92c.905 2.796 1.98 8.1-.966 6.94C1.742 18.413.958 16.3.958 15.456Z" fill="#E99633" stroke="#000" stroke-width=".297" stroke-linejoin="round"/><path d="M4.639 16.601c0-1.4.724-2.212 1.026-2.474l21.184-.604c3.36.725 10.006 1.835 10.199 2.173.241.423 1.267 6.337-.422 7.725-.83.682-3.863 2.294-6.579 3.078-3.681 1.064-11.044 5.553-12.794 6.156-1.75.604-4.104.483-5.312-.905-.864-.995-3.198-4.346-5.492-6.639-2.293-2.293-1.991-4.164-1.93-4.647.06-.483.12-2.112.12-3.863Z" fill="#F6A84C" stroke="#000" stroke-width=".297" stroke-linejoin="round"/><path d="M4.639 16.601c0-1.4.724-2.212 1.026-2.474l21.184-.604c3.36.725 10.006 1.835 10.199 2.173.241.423 1.267 6.337-.422 7.725-.83.682-3.863 2.294-6.579 3.078-3.681 1.064-11.044 5.553-12.794 6.156-1.75.604-4.104.483-5.312-.905-.864-.995-3.198-4.346-5.492-6.639-2.293-2.293-1.991-4.164-1.93-4.647.06-.483.12-2.112.12-3.863Z" stroke="#000" stroke-width=".297" stroke-linejoin="round"/><path d="M6.208 18.411c.676.725 4.81 4.768 6.458 7.122 1.648 2.354 2.474 2.173 4.345 1.388 1.715-.72 7.062-3.681 9.355-4.768 2.293-1.086 10.32-3.44 10.864-5.613.24-.965-1.389-2.232-3.018-3.62-1.084-.925-4.699-5.027-6.518-5.855-1.328-.603-2.475-.563-3.078-.422.784-.544 1.38-1.419.905-2.294-.785-1.448-5.794-5.793-16.899-1.508C-2.482 7.126 1.14 13.704 3.674 14.187c1.05.2 2.233-.483 1.81.302-.422.784-.664 2.435.724 3.922Z" fill="#FFDA7A" stroke="#000" stroke-width=".297" stroke-linejoin="round"/><path d="M5.825 10.59c-.251-.752 1.54-2.861 1.761-3.742.56-2.24 2.293-2.484 4.184-2.862 2.201-.44 2.642-.881 4.403-.66 1.761.22 2.788.943 3.963 1.1 3.303.44 3.083 2.202 4.184 3.743 1.1 1.541 2.421 1.981 3.963 3.082 1.54 1.101 0 2.202 0 3.963 0 1.762 1.982 1.395.88 2.863-.66.88 0 2.422-4.183 2.862-1.668.175-2.202 1.762-4.183 1.1-1.982-.66-2.202.662-4.184.662-1.981 0-.88-2.202-2.642-2.863-1.761-.66-3.082-.66-3.523-2.202-.44-1.54-1.32-.88-2.201-1.54-.881-.661-.66-1.982-.44-3.303.22-1.321-1.542-.881-1.982-2.202Z" fill="#E2E862" stroke="#000" stroke-width=".297" stroke-linejoin="round"/><path d="M16.315 17.316c1.762 1.541 3.453 1.811 6.385 0 7.487-4.624.493-10.189-4.624-10.568-5.944-.441-8.586 5.284-7.706 7.486.881 2.202 4.184 1.541 5.945 3.082Z" fill="#000" stroke="#000" stroke-width=".297" stroke-linejoin="round"/><path d="M15.875 16.941c1.761 1.541 3.453 1.811 6.385 0 7.486-4.624.492-10.189-4.624-10.568-5.944-.441-8.587 5.284-7.706 7.486.88 2.202 4.183 1.541 5.945 3.082Z" fill="#fff" stroke="#000" stroke-width=".297" stroke-linejoin="round"/><path d="M17.635 15.18c3.523-.176 4.185-4.184 1.322-5.725-2.862-1.541-5.284.44-5.725 1.761-.505 1.517 0 4.184 4.403 3.964Z" fill="#FFD748" stroke="#000" stroke-width=".297" stroke-linejoin="round"/><path fill-rule="evenodd" clip-rule="evenodd" d="m32.986 14.958.658 1.58-2.44-.137-.657-1.58 2.44.137ZM18.683 18.876l-1.036.923-.542-1.906 1.035-.922.543 1.905ZM14.207 7.782l-.403 1.663-1.887-1.552.402-1.662 1.888 1.551ZM7.82 13.459l-1.497-.828 1.996-1.41 1.497.827-1.995 1.41ZM21.056 5.798l-1.103-.61 1.47-1.038 1.102.61-1.47 1.038Z" fill="#407229" stroke="#000" stroke-width=".297" stroke-linejoin="round"/><path d="M27.127 17.864c-.154.566-.788.44-1.214.16-.396-.258-.591-.651-.591-.651s.363-.224.835-.247c.509-.025 1.123.171.97.738ZM23.245 10.53c.583.07.55.716.336 1.178-.198.429-.559.68-.559.68s-.275-.328-.366-.791c-.098-.5.007-1.137.59-1.067ZM9.49 7.295c.262.526-.295.853-.8.928-.466.07-.874-.094-.874-.094s.122-.409.46-.74c.363-.356.953-.619 1.214-.094ZM14.321 17.335c.261.526-.296.853-.8.928-.467.07-.874-.094-.874-.094s.122-.409.46-.74c.363-.356.952-.619 1.214-.093ZM12.159 15.607c.21-.548.827-.36 1.224-.04.367.297.522.708.522.708s-.383.187-.855.162c-.509-.026-1.101-.282-.891-.83Z" fill="#824A0E" stroke="#000" stroke-width=".297" stroke-linejoin="round"/></svg>